{
	"asset":{
		"generator":"Khronos glTF Blender I/O v3.6.27",
		"version":"2.0"
	},
	"scene":0,
	"scenes":[
		{
			"name":"Scene",
			"nodes":[
				3
			]
		}
	],
	"nodes":[
		{
			"name":"Bone.001",
			"translation":[
				0,
				2,
				0
			]
		},
		{
			"children":[
				0
			],
			"name":"Bone"
		},
		{
			"mesh":0,
			"name":"Cube",
			"skin":0
		},
		{
			"children":[
				2,
				1
			],
			"name":"Armature"
		}
	],
	"animations":[
		{
			"channels":[
				{
					"sampler":0,
					"target":{
						"node":1,
						"path":"translation"
					}
				},
				{
					"sampler":1,
					"target":{
						"node":1,
						"path":"rotation"
					}
				},
				{
					"sampler":2,
					"target":{
						"node":1,
						"path":"scale"
					}
				},
				{
					"sampler":3,
					"target":{
						"node":0,
						"path":"translation"
					}
				},
				{
					"sampler":4,
					"target":{
						"node":0,
						"path":"rotation"
					}
				},
				{
					"sampler":5,
					"target":{
						"node":0,
						"path":"scale"
					}
				}
			],
			"name":"MoveUp",
			"samplers":[
				{
					"input":7,
					"interpolation":"LINEAR",
					"output":8
				},
				{
					"input":9,
					"interpolation":"STEP",
					"output":10
				},
				{
					"input":9,
					"interpolation":"STEP",
					"output":11
				},
				{
					"input":9,
					"interpolation":"STEP",
					"output":12
				},
				{
					"input":7,
					"interpolation":"LINEAR",
					"output":13
				},
				{
					"input":9,
					"interpolation":"STEP",
					"output":14
				}
			]
		}
	],
	"materials":[
		{
			"doubleSided":true,
			"name":"Material",
			"pbrMetallicRoughness":{
				"baseColorFactor":[
					0.800000011920929,
					0.800000011920929,
					0.800000011920929,
					1
				],
				"metallicFactor":0,
				"roughnessFactor":0.5
			}
		}
	],
	"meshes":[
		{
			"name":"Cube",
			"primitives":[
				{
					"attributes":{
						"POSITION":0,
						"NORMAL":1,
						"TEXCOORD_0":2,
						"JOINTS_0":3,
						"WEIGHTS_0":4
					},
					"indices":5,
					"material":0
				}
			]
		}
	],
	"skins":[
		{
			"inverseBindMatrices":6,
			"joints":[
				1,
				0
			],
			"name":"Armature"
		}
	],
	"accessors":[
		{
			"bufferView":0,
			"componentType":5126,
			"count":24576,
			"max":[
				0.9991898536682129,
				3.9991893768310547,
				0.9991898536682129
			],
			"min":[
				-0.9991898536682129,
				0.0008101852145045996,
				-0.9991899728775024
			],
			"type":"VEC3"
		},
		{
			"bufferView":1,
			"componentType":5126,
			"count":24576,
			"type":"VEC3"
		},
		{
			"bufferView":2,
			"componentType":5126,
			"count":24576,
			"type":"VEC2"
		},
		{
			"bufferView":3,
			"componentType":5121,
			"count":24576,
			"type":"VEC4"
		},
		{
			"bufferView":4,
			"componentType":5126,
			"count":24576,
			"type":"VEC4"
		},
		{
			"bufferView":5,
			"componentType":5123,
			"count":36864,
			"type":"SCALAR"
		},
		{
			"bufferView":6,
			"componentType":5126,
			"count":2,
			"type":"MAT4"
		},
		{
			"bufferView":7,
			"componentType":5126,
			"count":24,
			"max":[
				1
			],
			"min":[
				0.041666666666666664
			],
			"type":"SCALAR"
		},
		{
			"bufferView":8,
			"componentType":5126,
			"count":24,
			"type":"VEC3"
		},
		{
			"bufferView":9,
			"componentType":5126,
			"count":2,
			"max":[
				1
			],
			"min":[
				0.041666666666666664
			],
			"type":"SCALAR"
		},
		{
			"bufferView":10,
			"componentType":5126,
			"count":2,
			"type":"VEC4"
		},
		{
			"bufferView":11,
			"componentType":5126,
			"count":2,
			"type":"VEC3"
		},
		{
			"bufferView":12,
			"componentType":5126,
			"count":2,
			"type":"VEC3"
		},
		{
			"bufferView":13,
			"componentType":5126,
			"count":24,
			"type":"VEC4"
		},
		{
			"bufferView":14,
			"componentType":5126,
			"count":2,
			"type":"VEC3"
		}
	],
	"bufferViews":[
		{
			"buffer":0,
			"byteLength":294912,
			"byteOffset":0,
			"target":34962
		},
		{
			"buffer":0,
			"byteLength":294912,
			"byteOffset":294912,
			"target":34962
		},
		{
			"buffer":0,
			"byteLength":196608,
			"byteOffset":589824,
			"target":34962
		},
		{
			"buffer":0,
			"byteLength":98304,
			"byteOffset":786432,
			"target":34962
		},
		{
			"buffer":0,
			"byteLength":393216,
			"byteOffset":884736,
			"target":34962
		},
		{
			"buffer":0,
			"byteLength":73728,
			"byteOffset":1277952,
			"target":34963
		},
		{
			"buffer":0,
			"byteLength":128,
			"byteOffset":1351680
		},
		{
			"buffer":0,
			"byteLength":96,
			"byteOffset":1351808
		},
		{
			"buffer":0,
			"byteLength":288,
			"byteOffset":1351904
		},
		{
			"buffer":0,
			"byteLength":8,
			"byteOffset":1352192
		},
		{
			"buffer":0,
			"byteLength":32,
			"byteOffset":1352200
		},
		{
			"buffer":0,
			"byteLength":24,
			"byteOffset":1352232
		},
		{
			"buffer":0,
			"byteLength":24,
			"byteOffset":1352256
		},
		{
			"buffer":0,
			"byteLength":384,
			"byteOffset":1352280
		},
		{
			"buffer":0,
			"byteLength":24,
			"byteOffset":1352664
		}
	],
	"buffers":[
		{
			"byteLength":1352688,
			"uri":"data:application/octet-stream;base64,"
		}
	]
}
